<svg width="50" height="50" viewBox="0 0 50 50" fill="white" xmlns="http://www.w3.org/2000/svg">
<path d="M25.621 0.00762939C39.1166 0.349674 49.9523 11.3968 49.9526 24.9741L49.9434 25.6195C49.846 29.4649 48.8771 33.0932 47.2303 36.3174L43.13 27.2644C43.1245 27.2524 43.1173 27.2412 43.1117 27.2293C43.2027 26.49 43.2566 25.7379 43.2566 24.9741C43.2563 14.8792 35.071 6.69556 24.9755 6.69556C14.8803 6.69585 6.69625 14.8794 6.69595 24.9741C6.69595 35.0689 14.8801 43.2538 24.9755 43.2541C25.7742 43.2541 26.56 43.1963 27.3316 43.0969C27.4946 43.2127 27.6676 43.3155 27.852 43.399L36.3135 47.2321C32.9108 48.9688 29.0579 49.9496 24.9755 49.9496L24.3316 49.9405C11.0499 49.6041 0.344271 38.9003 0.00762985 25.6195L0 24.9741C0.000297592 11.1814 11.1821 0.000297556 24.9755 0L25.621 0.00762939Z" fill="inherit"/>
<path d="M40.2839 28.5542L50 50L29.1416 40.5529L18.8534 18.8552L40.2839 28.5542Z" fill="inherit"/>
</svg>
